<svg id="Laag_1" data-name="Laag 1" xmlns="http://www.w3.org/2000/svg" viewBox="0 0 277.63 204.91"><defs><style>.cls-1{fill:#1d1d1b;stroke:#1d1d1b;stroke-miterlimit:10;}</style></defs><path class="cls-1" d="M194.42,64.11C170.56-1.32,139.53-.66,134.15,0c-27.07,2.85-44,35.61-53.63,64.11H0L55.63,203.78H220.94L276.16,64.11Zm-58-42.89-.31.15.54-.14c2.36.18,18.94,2.95,35,42.88H103.31C111.52,42.3,123,22.57,136.45,21.22Zm70.94,162.64H69.13L29.37,84H74.61c-2.78,10.82-4.28,19.11-4.74,21.84l21,3.56A249.45,249.45,0,0,1,96.78,84h81.85c2.33,7.68,4.6,16.28,6.76,26l20.83-4.66c-1.71-7.64-3.51-14.71-5.38-21.29h46Z" transform="translate(0.74 0.63)"/></svg>