<svg id="Laag_1" data-name="Laag 1" xmlns="http://www.w3.org/2000/svg" viewBox="0 0 201.34 188.11"><defs><style>.cls-1{fill:#1d1d1b;}</style></defs><path class="cls-1" d="M100.7,170.35,38.17,107.82A40.1,40.1,0,0,1,26.39,79.08,39.35,39.35,0,0,1,38.22,51C54,35.56,79.29,35.58,94.71,51l6,6,6-6a40.08,40.08,0,0,1,56.53,56.82ZM66.55,51.4a28.46,28.46,0,0,0-19.94,8.13,27.41,27.41,0,0,0-8.22,19.62,28.12,28.12,0,0,0,8.27,20.18l54,54.05,54.05-54a28.33,28.33,0,0,0,0-39.85,28,28,0,0,0-39.57,0L100.7,74,86.23,59.48A27.72,27.72,0,0,0,66.55,51.4Z"/></svg>