<svg id="Laag_1" data-name="Laag 1" xmlns="http://www.w3.org/2000/svg" viewBox="0 0 223.43 186.12"><defs><style>.cls-1{fill:#1d1d1b;stroke:#1d1d1b;stroke-miterlimit:10;}</style></defs><path class="cls-1" d="M148.93,70.21c-16.78-46-38.59-45.52-42.37-45.06-19,2-30.91,25-37.7,45.06H12.25L51.36,168.4H167.57l38.81-98.19ZM108.17,40.06l-.21.11.38-.1c1.65.13,13.31,2.08,24.61,30.14H84.88C90.65,54.88,98.7,41,108.17,40.06ZM158.05,154.4H60.85L32.9,84.21H64.71c-2,7.61-3,13.44-3.34,15.35l14.79,2.51a176.53,176.53,0,0,1,4.13-17.86h57.54c1.64,5.4,3.23,11.45,4.75,18.24l14.64-3.27c-1.2-5.37-2.47-10.34-3.78-15H185.8Z"/></svg>