<svg id="Laag_1" data-name="Laag 1" xmlns="http://www.w3.org/2000/svg" viewBox="0 0 240.47 177.47"><defs><style>.cls-1{fill:#1d1d1b;stroke:#1d1d1b;stroke-miterlimit:10;}</style></defs><path class="cls-1" d="M168.26,55.48C147.6-1.14,120.75-.57,116.1,0c-23.43,2.46-38,30.82-46.41,55.48H0L48.14,176.36H191.2L239,55.48ZM118.09,18.36l-.27.14.47-.13c2,.16,16.38,2.56,30.29,37.11H89.41C96.51,36.61,106.42,19.53,118.09,18.36Zm61.4,140.76H59.83L25.42,72.71H64.57c-2.41,9.37-3.7,16.55-4.1,18.9l18.2,3.09a215.43,215.43,0,0,1,5.09-22H154.6c2,6.65,4,14.09,5.85,22.46l18-4c-1.48-6.61-3-12.73-4.66-18.43h39.84Z" transform="translate(0.74 0.61)"/></svg>